PathFileType   4   (X/Y/Z)
DataRate	CameraRate	NumFrames	NumMarkers	Units	OrigDataRate	OrigDataStartFrame	OrigNumFrames
120.0	120.0	7	37	mm	120.0	24	186
Frame#	Time	midhip	hip_r	hip_l	knee_r	knee_l	ankle_r	ankle_l	midasis	asis_r	asis_l	psis_r	psis_l	epicondLat_r	epicondLat_l	epicondMed_r	epicondMed_l	malleolusLat_r	malleolusLat_l	malleolusMedv_r	malleolusMedv_l	neck	subclavicle_r	subclavicle_l	sternalnotch	xyphoidprocess	thighwand_r	thighwand_l	upperleg1_r	upperleg1_l	upperleg2_r	upperleg2_l	shankwand_r	shankwand_l	lowerleg1_r	lowerleg1_l	toe_r	toe_l
 	 	X1	Y1	Z1	X2	Y2	Z2	X3	Y3	Z3	X4	Y4	Z4	X5	Y5	Z5	X6	Y6	Z6	X7	Y7	Z7	X8	Y8	Z8	X9	Y9	Z9	X10	Y10	Z10	X11	Y11	Z11	X12	Y12	Z12	X13	Y13	Z13	X14	Y14	Z14	X15	Y15	Z15	X16	Y16	Z16	X17	Y17	Z17	X18	Y18	Z18	X19	Y19	Z19	X20	Y20	Z20	X21	Y21	Z21	X22	Y22	Z22	X23	Y23	Z23	X24	Y24	Z24	X25	Y25	Z25	X26	Y26	Z26	X27	Y27	Z27	X28	Y28	Z28	X29	Y29	Z29	X30	Y30	Z30	X31	Y31	Z31	X32	Y32	Z32	X33	Y33	Z33	X34	Y34	Z34	X35	Y35	Z35	X36	Y36	Z36	X37	Y37	Z37

	24	0.61667	1489.894	890.312	-304.406	1485.341	867.032	-239.452	1489.878	875.887	-389.552	1631.132	482.507	-215.774	1468.982	461.880	-356.243	1414.038	153.459	-198.651	1429.103	69.916	-307.677	1576.198	955.778	-306.850	1572.600	948.755	-187.801	1579.797	962.801	-425.900	1388.385	998.538	-270.923	1396.473	1002.205	-356.090	1641.151	489.826	-158.605	1479.510	456.778	-413.051	1640.197	460.405	-262.117	1439.378	452.647	-310.402	1399.185	165.094	-163.380	1415.480	66.791	-344.086	1431.134	158.001	-225.891	1431.994	86.272	-282.621	1401.203	1426.029	-298.644	1520.795	1339.091	-244.209	1531.533	1341.135	-348.237	1509.717	1349.272	-294.899	1577.961	1179.500	-302.911	1659.475	591.641	-84.941	1617.087	531.143	-349.241	1650.306	654.807	-153.327	1559.641	589.693	-401.616	1679.828	572.367	-170.923	1529.011	506.730	-396.486	1479.131	278.798	-81.947	1462.274	189.453	-441.705	1461.321	246.708	-154.816	1435.434	163.220	-370.086	1492.795	64.921	-171.095	1550.884	39.359	-322.608
	25	0.62500	1493.117	890.453	-304.592	1488.474	866.950	-239.683	1492.755	875.665	-389.799	1637.895	483.776	-215.896	1470.985	461.740	-355.948	1430.610	147.996	-198.175	1429.185	70.017	-307.614	1579.186	955.665	-307.318	1575.791	948.751	-188.230	1582.582	962.578	-426.405	1391.359	998.429	-271.064	1399.260	1001.978	-356.264	1647.829	491.199	-158.726	1481.423	456.544	-412.764	1645.894	461.307	-261.399	1441.952	452.328	-309.357	1415.336	159.283	-162.971	1415.611	66.970	-344.048	1448.602	153.161	-225.117	1432.610	86.213	-282.486	1404.671	1425.889	-298.779	1524.202	1338.633	-244.280	1534.677	1340.475	-348.965	1512.934	1349.080	-295.243	1580.725	1178.772	-303.197	1665.129	593.197	-85.159	1619.441	530.702	-349.222	1655.387	656.207	-153.659	1562.110	589.028	-401.286	1685.177	574.028	-170.857	1531.301	506.080	-395.911	1491.603	275.576	-81.693	1463.139	189.285	-441.536	1474.737	243.354	-154.163	1436.093	163.290	-369.941	1512.591	62.864	-170.390	1550.908	39.416	-322.557
	26	0.63333	1495.397	889.844	-305.150	1491.570	866.868	-239.898	1495.594	875.441	-390.029	1644.495	484.944	-216.017	1473.001	461.617	-355.641	1447.425	142.626	-197.743	1429.285	70.112	-307.602	1582.163	955.522	-307.772	1578.970	948.719	-188.647	1585.356	962.324	-426.897	1394.360	998.337	-271.193	1402.028	1001.792	-356.419	1654.350	492.465	-158.846	1483.333	456.330	-412.468	1652.330	462.177	-261.165	1442.607	453.455	-308.804	1431.763	153.519	-162.585	1415.763	67.148	-344.062	1466.019	148.465	-224.407	1433.056	86.484	-282.554	1407.776	1425.904	-299.010	1527.527	1338.504	-244.607	1537.857	1340.084	-349.548	1516.173	1348.864	-295.568	1583.793	1178.441	-303.344	1670.634	594.673	-85.410	1621.780	530.242	-349.228	1660.176	657.562	-153.911	1564.291	588.650	-401.471	1690.769	575.343	-170.986	1532.219	505.615	-395.786	1504.277	272.262	-81.426	1464.026	189.140	-441.401	1488.955	239.711	-153.669	1435.987	163.634	-369.876	1532.482	60.924	-169.828	1550.971	39.449	-322.491
	27	0.64167	1497.807	889.377	-305.695	1494.627	866.781	-240.103	1498.406	875.207	-390.248	1650.930	485.985	-216.143	1475.012	461.515	-355.333	1464.443	137.368	-197.369	1429.407	70.203	-307.634	1585.130	955.346	-308.212	1582.132	948.660	-189.055	1588.129	962.033	-427.369	1397.391	998.240	-271.312	1404.813	1001.638	-356.543	1660.714	493.598	-158.972	1485.230	456.140	-412.172	1658.572	463.410	-261.580	1447.638	452.154	-307.397	1448.433	147.824	-162.235	1415.935	67.326	-344.120	1482.614	143.846	-224.108	1433.124	86.930	-282.666	1411.028	1425.850	-299.089	1530.751	1338.562	-245.093	1541.041	1340.033	-349.700	1519.438	1348.621	-295.860	1586.994	1178.438	-303.507	1675.996	596.062	-85.685	1624.083	529.746	-349.254	1664.683	658.873	-154.023	1566.340	588.711	-401.876	1696.190	576.664	-171.384	1535.923	505.170	-395.234	1517.142	268.870	-81.168	1464.913	189.006	-441.291	1503.082	235.757	-153.327	1436.145	163.943	-369.789	1552.412	59.146	-169.381	1551.058	39.453	-322.421
	28	0.65000	1501.035	889.548	-305.928	1497.667	866.685	-240.283	1501.211	874.949	-390.443	1657.192	486.882	-216.271	1476.996	461.428	-355.041	1481.636	132.233	-197.060	1429.551	70.295	-307.694	1588.100	955.139	-308.630	1585.287	948.580	-189.449	1590.912	961.698	-427.810	1400.457	998.114	-271.427	1407.643	1001.502	-356.633	1666.915	494.580	-159.100	1487.090	455.970	-411.895	1664.074	464.498	-262.035	1447.640	454.199	-307.045	1465.322	142.211	-161.928	1416.121	67.505	-344.202	1499.169	139.352	-224.007	1433.353	87.085	-282.643	1414.481	1425.752	-299.228	1534.068	1338.480	-245.302	1544.154	1339.849	-349.998	1522.707	1348.353	-296.113	1590.024	1178.244	-303.722	1681.215	597.358	-85.973	1626.336	529.204	-349.308	1669.051	659.922	-154.267	1569.001	588.549	-401.794	1701.219	577.935	-171.926	1536.669	505.177	-395.083	1530.191	265.404	-80.932	1465.778	188.869	-441.196	1516.850	231.920	-153.077	1437.175	163.850	-369.657	1572.337	57.562	-169.028	1551.153	39.430	-322.355
	29	0.65833	1504.197	889.532	-306.131	1500.702	866.575	-240.428	1504.022	874.660	-390.604	1663.277	487.626	-216.386	1478.924	461.345	-354.790	1498.975	127.234	-196.819	1429.712	70.391	-307.757	1591.077	954.900	-309.017	1588.442	948.482	-189.821	1593.712	961.317	-428.213	1403.563	997.936	-271.542	1410.545	1001.372	-356.694	1672.946	495.402	-159.216	1488.887	455.812	-411.660	1668.927	465.488	-262.399	1448.868	454.798	-307.281	1482.404	136.697	-161.664	1416.314	67.683	-344.283	1515.934	134.664	-223.964	1433.309	87.026	-282.487	1417.664	1425.694	-299.592	1537.655	1338.216	-245.368	1547.332	1339.403	-350.455	1525.971	1348.057	-296.321	1593.269	1177.843	-303.923	1686.287	598.544	-86.253	1628.526	528.611	-349.406	1673.207	660.963	-154.619	1571.514	588.064	-401.787	1705.897	579.156	-172.557	1538.440	505.109	-395.213	1543.412	261.873	-80.727	1466.594	188.721	-441.112	1530.716	228.158	-152.987	1438.361	163.499	-369.461	1592.228	56.191	-168.763	1551.247	39.386	-322.301
	30	0.66667	1506.983	889.039	-306.528	1503.751	866.444	-240.529	1506.847	874.336	-390.720	1669.183	488.223	-216.470	1480.770	461.248	-354.603	1516.411	122.388	-196.645	1429.882	70.489	-307.805	1594.070	954.632	-309.369	1591.613	948.369	-190.165	1596.527	960.895	-428.572	1406.710	997.693	-271.652	1413.528	1001.234	-356.738	1678.798	496.065	-159.301	1490.594	455.654	-411.490	1672.463	465.859	-261.652	1451.132	454.568	-307.092	1499.635	131.301	-161.444	1416.498	67.857	-344.341	1532.756	129.878	-223.944	1432.798	86.914	-282.281	1420.761	1425.473	-299.716	1541.180	1337.798	-245.732	1550.287	1338.938	-350.431	1529.236	1347.723	-296.486	1596.401	1177.375	-304.292	1691.202	599.604	-86.503	1630.642	527.971	-349.569	1677.148	662.074	-155.185	1573.357	587.509	-402.121	1709.937	580.190	-172.906	1540.573	505.012	-395.333	1556.785	258.296	-80.549	1467.331	188.558	-441.040	1545.226	223.816	-152.967	1439.135	163.285	-369.305	1612.063	55.034	-168.587	1551.335	39.331	-322.260
